
      <svg data-logo="logo" xmlns="http://www.w3.org/2000/svg" viewBox="0 0 115 27">
        <g id="logogram" transform="translate(0, 13.5) rotate(0)"></g>
        <g id="logotype" transform="translate(0, 1)"><path fill="#5336e2" d="M12.98 25.35L12.98 25.35Q9.54 25.35 6.94 23.82Q4.35 22.29 2.89 19.55Q1.43 16.80 1.43 13.22L1.43 13.22Q1.43 9.54 2.93 6.80Q4.43 4.06 7.16 2.54Q9.89 1.02 13.50 1.02L13.50 1.02Q16.39 1.02 18.61 1.99Q20.82 2.95 22.24 4.77Q23.65 6.60 24.03 9.13L24.03 9.13L19.43 9.13Q19.05 7.12 17.51 6.03Q15.98 4.93 13.50 4.93L13.50 4.93Q11.20 4.93 9.48 5.94Q7.76 6.95 6.83 8.81Q5.89 10.68 5.89 13.25L5.89 13.25Q5.89 15.78 6.84 17.68Q7.79 19.57 9.51 20.63Q11.23 21.68 13.50 21.68L13.50 21.68Q15.28 21.68 16.68 21.09Q18.08 20.51 18.89 19.49Q19.69 18.47 19.69 17.18L19.69 17.18L19.69 16.10L13.10 16.10L13.10 12.63L20.59 12.63Q22.28 12.63 23.16 13.46Q24.03 14.30 24.03 15.90L24.03 15.90L24.03 25L19.92 25L19.92 22.02L19.77 22.02Q18.99 23.60 17.19 24.48Q15.40 25.35 12.98 25.35ZM35.22 25.35L35.22 25.35Q32.42 25.35 30.33 24.23Q28.25 23.10 27.12 21.05Q26.00 18.99 26.00 16.19L26.00 16.19Q26.00 13.39 27.11 11.36Q28.22 9.34 30.26 8.24Q32.30 7.15 35.04 7.15L35.04 7.15Q37.72 7.15 39.65 8.19Q41.57 9.22 42.62 11.16Q43.67 13.10 43.67 15.75L43.67 15.75L43.67 17.27L30.17 17.27Q30.43 19.49 31.73 20.67Q33.03 21.85 35.19 21.85L35.19 21.85Q36.79 21.85 37.80 21.25Q38.80 20.65 39.21 19.46L39.21 19.46L43.59 19.46Q42.97 22.23 40.77 23.79Q38.57 25.35 35.22 25.35ZM30.29 14.32L30.29 14.32L39.50 14.32Q39.27 12.52 38.12 11.57Q36.97 10.62 35.04 10.62L35.04 10.62Q33.15 10.62 31.92 11.58Q30.70 12.55 30.29 14.32ZM51.27 25L46.92 25L46.92 11.85L44.77 11.85L44.77 7.50L49.23 7.50L49.23 10.30L50.45 10.30Q51.44 8.81 52.99 8.00Q54.54 7.18 56.78 7.18L56.78 7.18Q60.37 7.18 62.34 9.16Q64.31 11.15 64.31 14.44L64.31 14.44L64.31 25L59.96 25L59.96 15.26Q59.96 13.19 58.87 12.11Q57.77 11.03 55.62 11.03L55.62 11.03Q53.52 11.03 52.39 12.11Q51.27 13.19 51.27 15.26L51.27 15.26L51.27 25ZM72.34 25L67.88 25L67.88 1.38L78.93 1.38Q82.90 1.38 85.09 3.36Q87.27 5.34 87.27 8.81L87.27 8.81Q87.27 12.25 85.07 14.25Q82.87 16.25 78.93 16.25L78.93 16.25L72.34 16.25L72.34 25ZM72.34 5.20L72.34 12.43L78.67 12.43Q80.71 12.43 81.77 11.47Q82.84 10.50 82.84 8.81L82.84 8.81Q82.84 7.09 81.77 6.14Q80.71 5.20 78.67 5.20L78.67 5.20L72.34 5.20ZM93.64 25L89.30 25L89.30 7.50L93.64 7.50L93.64 25ZM91.45 5.57L91.45 5.57Q90.43 5.57 89.72 4.86Q89.00 4.15 89.00 3.13L89.00 3.13Q89.00 2.10 89.72 1.39Q90.43 0.68 91.45 0.68L91.45 0.68Q92.48 0.68 93.19 1.39Q93.91 2.10 93.91 3.13L93.91 3.13Q93.91 4.15 93.19 4.86Q92.48 5.57 91.45 5.57ZM99.58 25L94.76 25L101.62 16.05L95.11 7.50L99.95 7.50L104.15 13.01L108.38 7.50L113.17 7.50L106.66 16.05L113.52 25L108.65 25L104.13 19.02L99.58 25Z"/></g>
        
      </svg>
    